<svg width="371" height="194" viewBox="0 0 371 194" fill="none" xmlns="http://www.w3.org/2000/svg">
<path d="M15.5892 172V138.4H28.1652C31.0132 138.4 33.4612 138.864 35.5092 139.792C37.5572 140.688 39.1252 142 40.2132 143.728C41.3332 145.424 41.8932 147.488 41.8932 149.92C41.8932 152.288 41.3332 154.336 40.2132 156.064C39.1252 157.76 37.5572 159.072 35.5092 160C33.4612 160.928 31.0132 161.392 28.1652 161.392H17.5572L19.1412 159.712V172H15.5892ZM19.1412 160L17.5572 158.272H28.0692C31.4292 158.272 33.9732 157.552 35.7012 156.112C37.4612 154.64 38.3412 152.576 38.3412 149.92C38.3412 147.232 37.4612 145.152 35.7012 143.68C33.9732 142.208 31.4292 141.472 28.0692 141.472H17.5572L19.1412 139.792V160ZM64.4112 172V166.432L64.2672 165.52V156.208C64.2672 154.064 63.6592 152.416 62.4432 151.264C61.2592 150.112 59.4832 149.536 57.1152 149.536C55.4832 149.536 53.9312 149.808 52.4592 150.352C50.9872 150.896 49.7392 151.616 48.7152 152.512L47.1792 149.968C48.4592 148.88 49.9952 148.048 51.7872 147.472C53.5792 146.864 55.4672 146.56 57.4512 146.56C60.7152 146.56 63.2272 147.376 64.9872 149.008C66.7792 150.608 67.6752 153.056 67.6752 156.352V172H64.4112ZM55.7232 172.24C53.8352 172.24 52.1872 171.936 50.7792 171.328C49.4032 170.688 48.3472 169.824 47.6112 168.736C46.8752 167.616 46.5072 166.336 46.5072 164.896C46.5072 163.584 46.8112 162.4 47.4192 161.344C48.0592 160.256 49.0832 159.392 50.4912 158.752C51.9312 158.08 53.8512 157.744 56.2512 157.744H64.9392V160.288H56.3472C53.9152 160.288 52.2192 160.72 51.2592 161.584C50.3312 162.448 49.8672 163.52 49.8672 164.8C49.8672 166.24 50.4272 167.392 51.5472 168.256C52.6672 169.12 54.2352 169.552 56.2512 169.552C58.1712 169.552 59.8192 169.12 61.1952 168.256C62.6032 167.36 63.6272 166.08 64.2672 164.416L65.0352 166.768C64.3952 168.432 63.2752 169.76 61.6752 170.752C60.1072 171.744 58.1232 172.24 55.7232 172.24ZM87.3477 172.24C85.2037 172.24 83.3317 171.84 81.7317 171.04C80.1317 170.24 78.8837 169.04 77.9877 167.44C77.1237 165.84 76.6917 163.84 76.6917 161.44V146.8H80.0997V161.056C80.0997 163.744 80.7557 165.776 82.0677 167.152C83.4117 168.496 85.2837 169.168 87.6837 169.168C89.4437 169.168 90.9637 168.816 92.2437 168.112C93.5557 167.376 94.5477 166.32 95.2197 164.944C95.9237 163.568 96.2757 161.92 96.2757 160V146.8H99.6837V172H96.4197V165.088L96.9477 166.336C96.1477 168.192 94.8997 169.648 93.2037 170.704C91.5397 171.728 89.5877 172.24 87.3477 172.24ZM109.182 172V136.384H112.59V172H109.182ZM132.344 172.24C129.912 172.24 127.72 171.696 125.768 170.608C123.848 169.488 122.328 167.968 121.208 166.048C120.088 164.096 119.528 161.872 119.528 159.376C119.528 156.848 120.088 154.624 121.208 152.704C122.328 150.784 123.848 149.28 125.768 148.192C127.688 147.104 129.88 146.56 132.344 146.56C134.84 146.56 137.048 147.104 138.968 148.192C140.92 149.28 142.44 150.784 143.528 152.704C144.648 154.624 145.208 156.848 145.208 159.376C145.208 161.872 144.648 164.096 143.528 166.048C142.44 167.968 140.92 169.488 138.968 170.608C137.016 171.696 134.808 172.24 132.344 172.24ZM132.344 169.216C134.168 169.216 135.784 168.816 137.192 168.016C138.6 167.184 139.704 166.032 140.504 164.56C141.336 163.056 141.752 161.328 141.752 159.376C141.752 157.392 141.336 155.664 140.504 154.192C139.704 152.72 138.6 151.584 137.192 150.784C135.784 149.952 134.184 149.536 132.392 149.536C130.6 149.536 129 149.952 127.592 150.784C126.184 151.584 125.064 152.72 124.232 154.192C123.4 155.664 122.984 157.392 122.984 159.376C122.984 161.328 123.4 163.056 124.232 164.56C125.064 166.032 126.184 167.184 127.592 168.016C129 168.816 130.584 169.216 132.344 169.216ZM165.449 172V138.4H168.377L183.737 164.608H182.201L197.417 138.4H200.345V172H196.937V143.728H197.753L183.737 167.728H182.057L167.945 143.728H168.857V172H165.449ZM226.364 172V166.432L226.22 165.52V156.208C226.22 154.064 225.612 152.416 224.396 151.264C223.212 150.112 221.436 149.536 219.068 149.536C217.436 149.536 215.884 149.808 214.412 150.352C212.94 150.896 211.692 151.616 210.668 152.512L209.132 149.968C210.412 148.88 211.948 148.048 213.74 147.472C215.532 146.864 217.42 146.56 219.404 146.56C222.668 146.56 225.18 147.376 226.94 149.008C228.732 150.608 229.628 153.056 229.628 156.352V172H226.364ZM217.676 172.24C215.788 172.24 214.14 171.936 212.732 171.328C211.356 170.688 210.3 169.824 209.564 168.736C208.828 167.616 208.46 166.336 208.46 164.896C208.46 163.584 208.764 162.4 209.372 161.344C210.012 160.256 211.036 159.392 212.444 158.752C213.884 158.08 215.804 157.744 218.204 157.744H226.892V160.288H218.3C215.868 160.288 214.172 160.72 213.212 161.584C212.284 162.448 211.82 163.52 211.82 164.8C211.82 166.24 212.38 167.392 213.5 168.256C214.62 169.12 216.188 169.552 218.204 169.552C220.124 169.552 221.772 169.12 223.148 168.256C224.556 167.36 225.58 166.08 226.22 164.416L226.988 166.768C226.348 168.432 225.228 169.76 223.628 170.752C222.06 171.744 220.076 172.24 217.676 172.24ZM238.885 172V146.8H242.149V153.664L241.813 152.464C242.517 150.544 243.701 149.088 245.365 148.096C247.029 147.072 249.093 146.56 251.557 146.56V149.872C251.429 149.872 251.301 149.872 251.173 149.872C251.045 149.84 250.917 149.824 250.789 149.824C248.133 149.824 246.053 150.64 244.549 152.272C243.045 153.872 242.293 156.16 242.293 159.136V172H238.885ZM257.775 172V146.8H261.183V172H257.775ZM259.503 141.232C258.799 141.232 258.207 140.992 257.727 140.512C257.247 140.032 257.007 139.456 257.007 138.784C257.007 138.112 257.247 137.552 257.727 137.104C258.207 136.624 258.799 136.384 259.503 136.384C260.207 136.384 260.799 136.608 261.279 137.056C261.759 137.504 261.999 138.064 261.999 138.736C261.999 139.44 261.759 140.032 261.279 140.512C260.831 140.992 260.239 141.232 259.503 141.232ZM283.53 146.56C285.578 146.56 287.37 146.96 288.906 147.76C290.474 148.528 291.69 149.712 292.554 151.312C293.45 152.912 293.898 154.928 293.898 157.36V172H290.49V157.696C290.49 155.04 289.818 153.04 288.474 151.696C287.162 150.32 285.306 149.632 282.906 149.632C281.114 149.632 279.546 150 278.202 150.736C276.89 151.44 275.866 152.48 275.13 153.856C274.426 155.2 274.074 156.832 274.074 158.752V172H270.666V146.8H273.93V153.712L273.402 152.416C274.202 150.592 275.482 149.168 277.242 148.144C279.002 147.088 281.098 146.56 283.53 146.56ZM315.968 146.56C318.016 146.56 319.808 146.96 321.344 147.76C322.912 148.528 324.128 149.712 324.992 151.312C325.888 152.912 326.336 154.928 326.336 157.36V172H322.928V157.696C322.928 155.04 322.256 153.04 320.912 151.696C319.6 150.32 317.744 149.632 315.344 149.632C313.552 149.632 311.984 150 310.64 150.736C309.328 151.44 308.304 152.48 307.568 153.856C306.864 155.2 306.512 156.832 306.512 158.752V172H303.104V136.384H306.512V153.712L305.84 152.416C306.64 150.592 307.92 149.168 309.68 148.144C311.44 147.088 313.536 146.56 315.968 146.56ZM345.813 172.24C343.381 172.24 341.189 171.696 339.237 170.608C337.317 169.488 335.797 167.968 334.677 166.048C333.557 164.096 332.997 161.872 332.997 159.376C332.997 156.848 333.557 154.624 334.677 152.704C335.797 150.784 337.317 149.28 339.237 148.192C341.157 147.104 343.349 146.56 345.813 146.56C348.309 146.56 350.517 147.104 352.437 148.192C354.389 149.28 355.909 150.784 356.997 152.704C358.117 154.624 358.677 156.848 358.677 159.376C358.677 161.872 358.117 164.096 356.997 166.048C355.909 167.968 354.389 169.488 352.437 170.608C350.485 171.696 348.277 172.24 345.813 172.24ZM345.813 169.216C347.637 169.216 349.253 168.816 350.661 168.016C352.069 167.184 353.173 166.032 353.973 164.56C354.805 163.056 355.221 161.328 355.221 159.376C355.221 157.392 354.805 155.664 353.973 154.192C353.173 152.72 352.069 151.584 350.661 150.784C349.253 149.952 347.653 149.536 345.861 149.536C344.069 149.536 342.469 149.952 341.061 150.784C339.653 151.584 338.533 152.72 337.701 154.192C336.869 155.664 336.453 157.392 336.453 159.376C336.453 161.328 336.869 163.056 337.701 164.56C338.533 166.032 339.653 167.184 341.061 168.016C342.469 168.816 344.053 169.216 345.813 169.216Z" fill="white"/>
<path d="M117.116 103V35.8H142.268C147.964 35.8 152.86 36.728 156.956 38.584C161.052 40.376 164.188 43 166.364 46.456C168.604 49.848 169.724 53.976 169.724 58.84C169.724 63.576 168.604 67.672 166.364 71.128C164.188 74.52 161.052 77.144 156.956 79C152.86 80.856 147.964 81.784 142.268 81.784H121.052L124.22 78.424V103H117.116ZM124.22 79L121.052 75.544H142.076C148.796 75.544 153.884 74.104 157.34 71.224C160.86 68.28 162.62 64.152 162.62 58.84C162.62 53.464 160.86 49.304 157.34 46.36C153.884 43.416 148.796 41.944 142.076 41.944H121.052L124.22 38.584V79ZM185.085 103V35.8H190.941L221.661 88.216H218.589L249.021 35.8H254.877V103H248.061V46.456H249.693L221.661 94.456H218.301L190.077 46.456H191.901V103H185.085Z" fill="white"/>
</svg>
