<svg width="180" height="137" viewBox="0 0 180 137" fill="none" xmlns="http://www.w3.org/2000/svg">
<path d="M21.1159 103V35.8H46.2679C51.9639 35.8 56.8599 36.728 60.9559 38.584C65.0519 40.376 68.1879 43 70.3639 46.456C72.6039 49.848 73.7239 53.976 73.7239 58.84C73.7239 63.576 72.6039 67.672 70.3639 71.128C68.1879 74.52 65.0519 77.144 60.9559 79C56.8599 80.856 51.9639 81.784 46.2679 81.784H25.0519L28.2199 78.424V103H21.1159ZM28.2199 79L25.0519 75.544H46.0759C52.7959 75.544 57.8839 74.104 61.3399 71.224C64.8599 68.28 66.6199 64.152 66.6199 58.84C66.6199 53.464 64.8599 49.304 61.3399 46.36C57.8839 43.416 52.7959 41.944 46.0759 41.944H25.0519L28.2199 38.584V79ZM89.0846 103V35.8H94.9406L125.661 88.216H122.589L153.021 35.8H158.877V103H152.061V46.456H153.693L125.661 94.456H122.301L94.0766 46.456H95.9006V103H89.0846Z" fill="white"/>
</svg>
