<svg width="606" height="105" viewBox="0 0 606 105" fill="none" xmlns="http://www.w3.org/2000/svg">
<path d="M126.736 36.288C124.24 36.288 121.84 35.888 119.536 35.088C117.264 34.256 115.504 33.2 114.256 31.92L115.648 29.184C116.832 30.336 118.416 31.312 120.4 32.112C122.416 32.88 124.528 33.264 126.736 33.264C128.848 33.264 130.56 33.008 131.872 32.496C133.216 31.952 134.192 31.232 134.8 30.336C135.44 29.44 135.76 28.448 135.76 27.36C135.76 26.048 135.376 24.992 134.608 24.192C133.872 23.392 132.896 22.768 131.68 22.32C130.464 21.84 129.12 21.424 127.648 21.072C126.176 20.72 124.704 20.352 123.232 19.968C121.76 19.552 120.4 19.008 119.152 18.336C117.936 17.664 116.944 16.784 116.176 15.696C115.44 14.576 115.072 13.12 115.072 11.328C115.072 9.664 115.504 8.144 116.368 6.768C117.264 5.36 118.624 4.24 120.448 3.408C122.272 2.544 124.608 2.112 127.456 2.112C129.344 2.112 131.216 2.384 133.072 2.928C134.928 3.44 136.528 4.16 137.872 5.088L136.672 7.92C135.232 6.96 133.696 6.256 132.064 5.808C130.464 5.36 128.912 5.136 127.408 5.136C125.392 5.136 123.728 5.408 122.416 5.952C121.104 6.496 120.128 7.232 119.488 8.16C118.88 9.056 118.576 10.08 118.576 11.232C118.576 12.544 118.944 13.6 119.68 14.4C120.448 15.2 121.44 15.824 122.656 16.272C123.904 16.72 125.264 17.12 126.736 17.472C128.208 17.824 129.664 18.208 131.104 18.624C132.576 19.04 133.92 19.584 135.136 20.256C136.384 20.896 137.376 21.76 138.112 22.848C138.88 23.936 139.264 25.36 139.264 27.12C139.264 28.752 138.816 30.272 137.92 31.68C137.024 33.056 135.648 34.176 133.792 35.04C131.968 35.872 129.616 36.288 126.736 36.288ZM156.987 36.24C154.363 36.24 152.059 35.696 150.075 34.608C148.091 33.488 146.539 31.968 145.419 30.048C144.299 28.096 143.739 25.872 143.739 23.376C143.739 20.88 144.267 18.672 145.323 16.752C146.411 14.832 147.883 13.328 149.739 12.24C151.627 11.12 153.739 10.56 156.075 10.56C158.443 10.56 160.539 11.104 162.363 12.192C164.219 13.248 165.675 14.752 166.731 16.704C167.787 18.624 168.315 20.848 168.315 23.376C168.315 23.536 168.299 23.712 168.267 23.904C168.267 24.064 168.267 24.24 168.267 24.432H146.331V21.888H166.443L165.099 22.896C165.099 21.072 164.699 19.456 163.899 18.048C163.131 16.608 162.075 15.488 160.731 14.688C159.387 13.888 157.835 13.488 156.075 13.488C154.347 13.488 152.795 13.888 151.419 14.688C150.043 15.488 148.971 16.608 148.203 18.048C147.435 19.488 147.051 21.136 147.051 22.992V23.52C147.051 25.44 147.467 27.136 148.299 28.608C149.163 30.048 150.347 31.184 151.851 32.016C153.387 32.816 155.131 33.216 157.083 33.216C158.619 33.216 160.043 32.944 161.355 32.4C162.699 31.856 163.851 31.024 164.811 29.904L166.731 32.112C165.611 33.456 164.203 34.48 162.507 35.184C160.843 35.888 159.003 36.24 156.987 36.24ZM171.508 45.552C170.484 45.552 169.508 45.408 168.58 45.12C167.62 44.864 166.82 44.464 166.18 43.92L167.38 41.328C168.404 42.192 169.716 42.624 171.316 42.624C172.66 42.624 173.684 42.224 174.388 41.424C175.124 40.624 175.492 39.44 175.492 37.872V10.8H178.9V37.872C178.9 40.208 178.26 42.064 176.98 43.44C175.732 44.848 173.908 45.552 171.508 45.552ZM177.22 5.232C176.516 5.232 175.924 4.992 175.444 4.512C174.964 4.032 174.724 3.456 174.724 2.784C174.724 2.112 174.964 1.552 175.444 1.104C175.924 0.623998 176.516 0.383998 177.22 0.383998C177.924 0.383998 178.516 0.607998 178.996 1.056C179.476 1.504 179.716 2.064 179.716 2.736C179.716 3.44 179.476 4.032 178.996 4.512C178.548 4.992 177.956 5.232 177.22 5.232ZM204.216 36V30.432L204.072 29.52V20.208C204.072 18.064 203.464 16.416 202.248 15.264C201.064 14.112 199.288 13.536 196.92 13.536C195.288 13.536 193.736 13.808 192.264 14.352C190.792 14.896 189.544 15.616 188.52 16.512L186.984 13.968C188.264 12.88 189.8 12.048 191.592 11.472C193.384 10.864 195.272 10.56 197.256 10.56C200.52 10.56 203.032 11.376 204.792 13.008C206.584 14.608 207.48 17.056 207.48 20.352V36H204.216ZM195.528 36.24C193.64 36.24 191.992 35.936 190.584 35.328C189.208 34.688 188.152 33.824 187.416 32.736C186.68 31.616 186.312 30.336 186.312 28.896C186.312 27.584 186.616 26.4 187.224 25.344C187.864 24.256 188.888 23.392 190.296 22.752C191.736 22.08 193.656 21.744 196.056 21.744H204.744V24.288H196.152C193.72 24.288 192.024 24.72 191.064 25.584C190.136 26.448 189.672 27.52 189.672 28.8C189.672 30.24 190.232 31.392 191.352 32.256C192.472 33.12 194.04 33.552 196.056 33.552C197.976 33.552 199.624 33.12 201 32.256C202.408 31.36 203.432 30.08 204.072 28.416L204.84 30.768C204.2 32.432 203.08 33.76 201.48 34.752C199.912 35.744 197.928 36.24 195.528 36.24ZM239.571 36.24C237.139 36.24 234.947 35.696 232.995 34.608C231.075 33.488 229.555 31.968 228.435 30.048C227.315 28.096 226.755 25.872 226.755 23.376C226.755 20.848 227.315 18.624 228.435 16.704C229.555 14.784 231.075 13.28 232.995 12.192C234.915 11.104 237.107 10.56 239.571 10.56C242.067 10.56 244.275 11.104 246.195 12.192C248.147 13.28 249.667 14.784 250.755 16.704C251.875 18.624 252.435 20.848 252.435 23.376C252.435 25.872 251.875 28.096 250.755 30.048C249.667 31.968 248.147 33.488 246.195 34.608C244.243 35.696 242.035 36.24 239.571 36.24ZM239.571 33.216C241.395 33.216 243.011 32.816 244.419 32.016C245.827 31.184 246.931 30.032 247.731 28.56C248.563 27.056 248.979 25.328 248.979 23.376C248.979 21.392 248.563 19.664 247.731 18.192C246.931 16.72 245.827 15.584 244.419 14.784C243.011 13.952 241.411 13.536 239.619 13.536C237.827 13.536 236.227 13.952 234.819 14.784C233.411 15.584 232.291 16.72 231.459 18.192C230.627 19.664 230.211 21.392 230.211 23.376C230.211 25.328 230.627 27.056 231.459 28.56C232.291 30.032 233.411 31.184 234.819 32.016C236.227 32.816 237.811 33.216 239.571 33.216ZM303.443 10.56C305.491 10.56 307.267 10.96 308.771 11.76C310.307 12.528 311.491 13.712 312.323 15.312C313.187 16.912 313.619 18.928 313.619 21.36V36H310.211V21.696C310.211 19.04 309.571 17.04 308.291 15.696C307.043 14.32 305.267 13.632 302.963 13.632C301.235 13.632 299.731 14 298.451 14.736C297.203 15.44 296.227 16.48 295.523 17.856C294.851 19.2 294.515 20.832 294.515 22.752V36H291.107V21.696C291.107 19.04 290.467 17.04 289.187 15.696C287.907 14.32 286.115 13.632 283.811 13.632C282.115 13.632 280.627 14 279.347 14.736C278.067 15.44 277.075 16.48 276.371 17.856C275.699 19.2 275.363 20.832 275.363 22.752V36H271.955V10.8H275.219V17.616L274.691 16.416C275.459 14.592 276.691 13.168 278.387 12.144C280.115 11.088 282.147 10.56 284.483 10.56C286.947 10.56 289.043 11.184 290.771 12.432C292.499 13.648 293.619 15.488 294.131 17.952L292.787 17.424C293.523 15.376 294.819 13.728 296.675 12.48C298.563 11.2 300.819 10.56 303.443 10.56ZM333.565 36.24C330.941 36.24 328.637 35.696 326.653 34.608C324.669 33.488 323.117 31.968 321.997 30.048C320.877 28.096 320.317 25.872 320.317 23.376C320.317 20.88 320.845 18.672 321.901 16.752C322.989 14.832 324.461 13.328 326.317 12.24C328.205 11.12 330.317 10.56 332.653 10.56C335.021 10.56 337.117 11.104 338.941 12.192C340.797 13.248 342.253 14.752 343.309 16.704C344.365 18.624 344.893 20.848 344.893 23.376C344.893 23.536 344.877 23.712 344.845 23.904C344.845 24.064 344.845 24.24 344.845 24.432H322.909V21.888H343.021L341.677 22.896C341.677 21.072 341.277 19.456 340.477 18.048C339.709 16.608 338.653 15.488 337.309 14.688C335.965 13.888 334.413 13.488 332.653 13.488C330.925 13.488 329.373 13.888 327.997 14.688C326.621 15.488 325.549 16.608 324.781 18.048C324.013 19.488 323.629 21.136 323.629 22.992V23.52C323.629 25.44 324.045 27.136 324.877 28.608C325.741 30.048 326.925 31.184 328.429 32.016C329.965 32.816 331.709 33.216 333.661 33.216C335.197 33.216 336.621 32.944 337.933 32.4C339.277 31.856 340.429 31.024 341.389 29.904L343.309 32.112C342.189 33.456 340.781 34.48 339.085 35.184C337.421 35.888 335.581 36.24 333.565 36.24ZM358.598 36.24C356.518 36.24 354.55 35.952 352.694 35.376C350.838 34.768 349.382 34.016 348.326 33.12L349.862 30.432C350.886 31.2 352.198 31.872 353.798 32.448C355.398 32.992 357.078 33.264 358.838 33.264C361.238 33.264 362.966 32.896 364.022 32.16C365.078 31.392 365.606 30.384 365.606 29.136C365.606 28.208 365.302 27.488 364.694 26.976C364.118 26.432 363.35 26.032 362.39 25.776C361.43 25.488 360.358 25.248 359.174 25.056C357.99 24.864 356.806 24.64 355.622 24.384C354.47 24.128 353.414 23.76 352.454 23.28C351.494 22.768 350.71 22.08 350.102 21.216C349.526 20.352 349.238 19.2 349.238 17.76C349.238 16.384 349.622 15.152 350.39 14.064C351.158 12.976 352.278 12.128 353.75 11.52C355.254 10.88 357.078 10.56 359.222 10.56C360.854 10.56 362.486 10.784 364.118 11.232C365.75 11.648 367.094 12.208 368.15 12.912L366.662 15.648C365.542 14.88 364.342 14.336 363.062 14.016C361.782 13.664 360.502 13.488 359.222 13.488C356.95 13.488 355.27 13.888 354.182 14.688C353.126 15.456 352.598 16.448 352.598 17.664C352.598 18.624 352.886 19.376 353.462 19.92C354.07 20.464 354.854 20.896 355.814 21.216C356.806 21.504 357.878 21.744 359.03 21.936C360.214 22.128 361.382 22.368 362.534 22.656C363.718 22.912 364.79 23.28 365.75 23.76C366.742 24.208 367.526 24.864 368.102 25.728C368.71 26.56 369.014 27.664 369.014 29.04C369.014 30.512 368.598 31.792 367.766 32.88C366.966 33.936 365.782 34.768 364.214 35.376C362.678 35.952 360.806 36.24 358.598 36.24ZM383.236 36.24C380.868 36.24 379.044 35.6 377.764 34.32C376.484 33.04 375.844 31.232 375.844 28.896V5.232H379.252V28.704C379.252 30.176 379.62 31.312 380.356 32.112C381.124 32.912 382.212 33.312 383.62 33.312C385.124 33.312 386.372 32.88 387.364 32.016L388.564 34.464C387.892 35.072 387.076 35.52 386.116 35.808C385.188 36.096 384.228 36.24 383.236 36.24ZM371.332 13.632V10.8H386.932V13.632H371.332ZM394.768 36V10.8H398.032V17.664L397.696 16.464C398.4 14.544 399.584 13.088 401.248 12.096C402.912 11.072 404.976 10.56 407.44 10.56V13.872C407.312 13.872 407.184 13.872 407.056 13.872C406.928 13.84 406.8 13.824 406.672 13.824C404.016 13.824 401.936 14.64 400.432 16.272C398.928 17.872 398.176 20.16 398.176 23.136V36H394.768ZM424.128 36.24C421.504 36.24 419.2 35.696 417.216 34.608C415.232 33.488 413.68 31.968 412.56 30.048C411.44 28.096 410.88 25.872 410.88 23.376C410.88 20.88 411.408 18.672 412.464 16.752C413.552 14.832 415.024 13.328 416.88 12.24C418.768 11.12 420.88 10.56 423.216 10.56C425.584 10.56 427.68 11.104 429.504 12.192C431.36 13.248 432.816 14.752 433.872 16.704C434.928 18.624 435.456 20.848 435.456 23.376C435.456 23.536 435.44 23.712 435.408 23.904C435.408 24.064 435.408 24.24 435.408 24.432H413.472V21.888H433.584L432.24 22.896C432.24 21.072 431.84 19.456 431.04 18.048C430.272 16.608 429.216 15.488 427.872 14.688C426.528 13.888 424.976 13.488 423.216 13.488C421.488 13.488 419.936 13.888 418.56 14.688C417.184 15.488 416.112 16.608 415.344 18.048C414.576 19.488 414.192 21.136 414.192 22.992V23.52C414.192 25.44 414.608 27.136 415.44 28.608C416.304 30.048 417.488 31.184 418.992 32.016C420.528 32.816 422.272 33.216 424.224 33.216C425.76 33.216 427.184 32.944 428.496 32.4C429.84 31.856 430.992 31.024 431.952 29.904L433.872 32.112C432.752 33.456 431.344 34.48 429.648 35.184C427.984 35.888 426.144 36.24 424.128 36.24ZM464.987 36.24C462.587 36.24 460.427 35.696 458.507 34.608C456.619 33.52 455.131 32.016 454.043 30.096C452.955 28.144 452.411 25.904 452.411 23.376C452.411 20.816 452.955 18.576 454.043 16.656C455.131 14.736 456.619 13.248 458.507 12.192C460.427 11.104 462.587 10.56 464.987 10.56C467.195 10.56 469.163 11.056 470.891 12.048C472.651 13.04 474.043 14.496 475.067 16.416C476.123 18.304 476.651 20.624 476.651 23.376C476.651 26.096 476.139 28.416 475.115 30.336C474.091 32.256 472.699 33.728 470.939 34.752C469.211 35.744 467.227 36.24 464.987 36.24ZM465.227 33.216C467.019 33.216 468.619 32.816 470.027 32.016C471.467 31.184 472.587 30.032 473.387 28.56C474.219 27.056 474.635 25.328 474.635 23.376C474.635 21.392 474.219 19.664 473.387 18.192C472.587 16.72 471.467 15.584 470.027 14.784C468.619 13.952 467.019 13.536 465.227 13.536C463.467 13.536 461.883 13.952 460.475 14.784C459.067 15.584 457.947 16.72 457.115 18.192C456.283 19.664 455.867 21.392 455.867 23.376C455.867 25.328 456.283 27.056 457.115 28.56C457.947 30.032 459.067 31.184 460.475 32.016C461.883 32.816 463.467 33.216 465.227 33.216ZM474.731 36V28.416L475.067 23.328L474.587 18.24V0.383998H477.995V36H474.731ZM497.758 36.24C495.326 36.24 493.134 35.696 491.182 34.608C489.262 33.488 487.742 31.968 486.622 30.048C485.502 28.096 484.942 25.872 484.942 23.376C484.942 20.848 485.502 18.624 486.622 16.704C487.742 14.784 489.262 13.28 491.182 12.192C493.102 11.104 495.294 10.56 497.758 10.56C500.254 10.56 502.462 11.104 504.382 12.192C506.334 13.28 507.854 14.784 508.942 16.704C510.062 18.624 510.622 20.848 510.622 23.376C510.622 25.872 510.062 28.096 508.942 30.048C507.854 31.968 506.334 33.488 504.382 34.608C502.43 35.696 500.222 36.24 497.758 36.24ZM497.758 33.216C499.582 33.216 501.198 32.816 502.606 32.016C504.014 31.184 505.118 30.032 505.918 28.56C506.75 27.056 507.166 25.328 507.166 23.376C507.166 21.392 506.75 19.664 505.918 18.192C505.118 16.72 504.014 15.584 502.606 14.784C501.198 13.952 499.598 13.536 497.806 13.536C496.014 13.536 494.414 13.952 493.006 14.784C491.598 15.584 490.478 16.72 489.646 18.192C488.814 19.664 488.398 21.392 488.398 23.376C488.398 25.328 488.814 27.056 489.646 28.56C490.478 30.032 491.598 31.184 493.006 32.016C494.414 32.816 495.998 33.216 497.758 33.216ZM536.911 36.24C534.831 36.24 532.863 35.952 531.007 35.376C529.151 34.768 527.695 34.016 526.639 33.12L528.175 30.432C529.199 31.2 530.511 31.872 532.111 32.448C533.711 32.992 535.391 33.264 537.151 33.264C539.551 33.264 541.279 32.896 542.335 32.16C543.391 31.392 543.919 30.384 543.919 29.136C543.919 28.208 543.615 27.488 543.007 26.976C542.431 26.432 541.663 26.032 540.703 25.776C539.743 25.488 538.671 25.248 537.487 25.056C536.303 24.864 535.119 24.64 533.935 24.384C532.783 24.128 531.727 23.76 530.767 23.28C529.807 22.768 529.023 22.08 528.415 21.216C527.839 20.352 527.551 19.2 527.551 17.76C527.551 16.384 527.935 15.152 528.703 14.064C529.471 12.976 530.591 12.128 532.063 11.52C533.567 10.88 535.391 10.56 537.535 10.56C539.167 10.56 540.799 10.784 542.431 11.232C544.063 11.648 545.407 12.208 546.463 12.912L544.975 15.648C543.855 14.88 542.655 14.336 541.375 14.016C540.095 13.664 538.815 13.488 537.535 13.488C535.263 13.488 533.583 13.888 532.495 14.688C531.439 15.456 530.911 16.448 530.911 17.664C530.911 18.624 531.199 19.376 531.775 19.92C532.383 20.464 533.167 20.896 534.127 21.216C535.119 21.504 536.191 21.744 537.343 21.936C538.527 22.128 539.695 22.368 540.847 22.656C542.031 22.912 543.103 23.28 544.063 23.76C545.055 24.208 545.839 24.864 546.415 25.728C547.023 26.56 547.327 27.664 547.327 29.04C547.327 30.512 546.911 31.792 546.079 32.88C545.279 33.936 544.095 34.768 542.527 35.376C540.991 35.952 539.119 36.24 536.911 36.24ZM564.284 36.24C561.66 36.24 559.356 35.696 557.372 34.608C555.388 33.488 553.836 31.968 552.716 30.048C551.596 28.096 551.036 25.872 551.036 23.376C551.036 20.88 551.564 18.672 552.62 16.752C553.708 14.832 555.18 13.328 557.036 12.24C558.924 11.12 561.036 10.56 563.372 10.56C565.74 10.56 567.836 11.104 569.66 12.192C571.516 13.248 572.972 14.752 574.028 16.704C575.084 18.624 575.612 20.848 575.612 23.376C575.612 23.536 575.596 23.712 575.564 23.904C575.564 24.064 575.564 24.24 575.564 24.432H553.628V21.888H573.74L572.396 22.896C572.396 21.072 571.996 19.456 571.196 18.048C570.428 16.608 569.372 15.488 568.028 14.688C566.684 13.888 565.132 13.488 563.372 13.488C561.644 13.488 560.092 13.888 558.716 14.688C557.34 15.488 556.268 16.608 555.5 18.048C554.732 19.488 554.348 21.136 554.348 22.992V23.52C554.348 25.44 554.764 27.136 555.596 28.608C556.46 30.048 557.644 31.184 559.148 32.016C560.684 32.816 562.428 33.216 564.38 33.216C565.916 33.216 567.34 32.944 568.652 32.4C569.996 31.856 571.148 31.024 572.108 29.904L574.028 32.112C572.908 33.456 571.5 34.48 569.804 35.184C568.14 35.888 566.3 36.24 564.284 36.24ZM592.965 36.24C590.821 36.24 588.949 35.84 587.349 35.04C585.749 34.24 584.501 33.04 583.605 31.44C582.741 29.84 582.309 27.84 582.309 25.44V10.8H585.717V25.056C585.717 27.744 586.373 29.776 587.685 31.152C589.029 32.496 590.901 33.168 593.301 33.168C595.061 33.168 596.581 32.816 597.861 32.112C599.173 31.376 600.165 30.32 600.837 28.944C601.541 27.568 601.893 25.92 601.893 24V10.8H605.301V36H602.037V29.088L602.565 30.336C601.765 32.192 600.517 33.648 598.821 34.704C597.157 35.728 595.205 36.24 592.965 36.24ZM129.76 95.24C127.584 95.24 125.616 94.744 123.856 93.752C122.096 92.728 120.688 91.272 119.632 89.384C118.608 87.464 118.096 85.128 118.096 82.376C118.096 79.624 118.608 77.304 119.632 75.416C120.656 73.496 122.048 72.04 123.808 71.048C125.568 70.056 127.552 69.56 129.76 69.56C132.16 69.56 134.304 70.104 136.192 71.192C138.112 72.248 139.616 73.752 140.704 75.704C141.792 77.624 142.336 79.848 142.336 82.376C142.336 84.936 141.792 87.176 140.704 89.096C139.616 91.016 138.112 92.52 136.192 93.608C134.304 94.696 132.16 95.24 129.76 95.24ZM116.752 104.312V69.8H120.016V77.384L119.68 82.424L120.16 87.512V104.312H116.752ZM129.52 92.216C131.312 92.216 132.912 91.816 134.32 91.016C135.728 90.184 136.848 89.032 137.68 87.56C138.512 86.056 138.928 84.328 138.928 82.376C138.928 80.424 138.512 78.712 137.68 77.24C136.848 75.768 135.728 74.616 134.32 73.784C132.912 72.952 131.312 72.536 129.52 72.536C127.728 72.536 126.112 72.952 124.672 73.784C123.264 74.616 122.144 75.768 121.312 77.24C120.512 78.712 120.112 80.424 120.112 82.376C120.112 84.328 120.512 86.056 121.312 87.56C122.144 89.032 123.264 90.184 124.672 91.016C126.112 91.816 127.728 92.216 129.52 92.216ZM149.283 95V69.8H152.547V76.664L152.211 75.464C152.915 73.544 154.099 72.088 155.763 71.096C157.427 70.072 159.491 69.56 161.955 69.56V72.872C161.827 72.872 161.699 72.872 161.571 72.872C161.443 72.84 161.315 72.824 161.187 72.824C158.531 72.824 156.451 73.64 154.947 75.272C153.443 76.872 152.691 79.16 152.691 82.136V95H149.283ZM178.212 95.24C175.78 95.24 173.588 94.696 171.636 93.608C169.716 92.488 168.196 90.968 167.076 89.048C165.956 87.096 165.396 84.872 165.396 82.376C165.396 79.848 165.956 77.624 167.076 75.704C168.196 73.784 169.716 72.28 171.636 71.192C173.556 70.104 175.748 69.56 178.212 69.56C180.708 69.56 182.916 70.104 184.836 71.192C186.788 72.28 188.308 73.784 189.396 75.704C190.516 77.624 191.076 79.848 191.076 82.376C191.076 84.872 190.516 87.096 189.396 89.048C188.308 90.968 186.788 92.488 184.836 93.608C182.884 94.696 180.676 95.24 178.212 95.24ZM178.212 92.216C180.036 92.216 181.652 91.816 183.06 91.016C184.468 90.184 185.572 89.032 186.372 87.56C187.204 86.056 187.62 84.328 187.62 82.376C187.62 80.392 187.204 78.664 186.372 77.192C185.572 75.72 184.468 74.584 183.06 73.784C181.652 72.952 180.052 72.536 178.26 72.536C176.468 72.536 174.868 72.952 173.46 73.784C172.052 74.584 170.932 75.72 170.1 77.192C169.268 78.664 168.852 80.392 168.852 82.376C168.852 84.328 169.268 86.056 170.1 87.56C170.932 89.032 172.052 90.184 173.46 91.016C174.868 91.816 176.452 92.216 178.212 92.216ZM175.092 65.864L181.668 59.912H186.228L178.452 65.864H175.092ZM211.041 95.24C208.865 95.24 206.897 94.744 205.137 93.752C203.377 92.728 201.969 91.272 200.913 89.384C199.889 87.464 199.377 85.128 199.377 82.376C199.377 79.624 199.889 77.304 200.913 75.416C201.937 73.496 203.329 72.04 205.089 71.048C206.849 70.056 208.833 69.56 211.041 69.56C213.441 69.56 215.585 70.104 217.473 71.192C219.393 72.248 220.897 73.752 221.985 75.704C223.073 77.624 223.617 79.848 223.617 82.376C223.617 84.936 223.073 87.176 221.985 89.096C220.897 91.016 219.393 92.52 217.473 93.608C215.585 94.696 213.441 95.24 211.041 95.24ZM198.033 104.312V69.8H201.297V77.384L200.961 82.424L201.441 87.512V104.312H198.033ZM210.801 92.216C212.593 92.216 214.193 91.816 215.601 91.016C217.009 90.184 218.129 89.032 218.961 87.56C219.793 86.056 220.209 84.328 220.209 82.376C220.209 80.424 219.793 78.712 218.961 77.24C218.129 75.768 217.009 74.616 215.601 73.784C214.193 72.952 212.593 72.536 210.801 72.536C209.009 72.536 207.393 72.952 205.953 73.784C204.545 74.616 203.425 75.768 202.593 77.24C201.793 78.712 201.393 80.424 201.393 82.376C201.393 84.328 201.793 86.056 202.593 87.56C203.425 89.032 204.545 90.184 205.953 91.016C207.393 91.816 209.009 92.216 210.801 92.216ZM230.565 95V69.8H233.973V95H230.565ZM232.293 64.232C231.589 64.232 230.997 63.992 230.517 63.512C230.037 63.032 229.797 62.456 229.797 61.784C229.797 61.112 230.037 60.552 230.517 60.104C230.997 59.624 231.589 59.384 232.293 59.384C232.997 59.384 233.589 59.608 234.069 60.056C234.549 60.504 234.789 61.064 234.789 61.736C234.789 62.44 234.549 63.032 234.069 63.512C233.621 63.992 233.029 64.232 232.293 64.232ZM253.727 95.24C251.295 95.24 249.103 94.696 247.151 93.608C245.231 92.488 243.711 90.968 242.591 89.048C241.471 87.096 240.911 84.872 240.911 82.376C240.911 79.848 241.471 77.624 242.591 75.704C243.711 73.784 245.231 72.28 247.151 71.192C249.071 70.104 251.263 69.56 253.727 69.56C256.223 69.56 258.431 70.104 260.351 71.192C262.303 72.28 263.823 73.784 264.911 75.704C266.031 77.624 266.591 79.848 266.591 82.376C266.591 84.872 266.031 87.096 264.911 89.048C263.823 90.968 262.303 92.488 260.351 93.608C258.399 94.696 256.191 95.24 253.727 95.24ZM253.727 92.216C255.551 92.216 257.167 91.816 258.575 91.016C259.983 90.184 261.087 89.032 261.887 87.56C262.719 86.056 263.135 84.328 263.135 82.376C263.135 80.392 262.719 78.664 261.887 77.192C261.087 75.72 259.983 74.584 258.575 73.784C257.167 72.952 255.567 72.536 253.775 72.536C251.983 72.536 250.383 72.952 248.975 73.784C247.567 74.584 246.447 75.72 245.615 77.192C244.783 78.664 244.367 80.392 244.367 82.376C244.367 84.328 244.783 86.056 245.615 87.56C246.447 89.032 247.567 90.184 248.975 91.016C250.383 91.816 251.967 92.216 253.727 92.216Z" fill="#F8D782"/>
<path d="M286.831 95V61.4H300.511C304.095 61.4 307.231 62.12 309.919 63.56C312.639 64.968 314.751 66.936 316.255 69.464C317.759 71.992 318.511 74.904 318.511 78.2C318.511 81.496 317.759 84.408 316.255 86.936C314.751 89.464 312.639 91.448 309.919 92.888C307.231 94.296 304.095 95 300.511 95H286.831ZM290.383 91.928H300.319C303.295 91.928 305.871 91.352 308.047 90.2C310.255 89.016 311.967 87.4 313.183 85.352C314.399 83.272 315.007 80.888 315.007 78.2C315.007 75.48 314.399 73.096 313.183 71.048C311.967 69 310.255 67.4 308.047 66.248C305.871 65.064 303.295 64.472 300.319 64.472H290.383V91.928ZM326.488 95V61.4H330.04V95H326.488ZM340.972 95V61.4H343.9L367.084 90.584H365.548V61.4H369.052V95H366.124L342.988 65.816H344.524V95H340.972ZM404.595 61.4H408.099V95H404.595V61.4ZM383.571 95H380.019V61.4H383.571V95ZM404.931 79.496H383.187V76.376H404.931V79.496ZM422.234 76.424H439.994V79.448H422.234V76.424ZM422.618 91.928H442.826V95H419.066V61.4H442.106V64.472H422.618V91.928ZM451.175 95V61.4H454.727V95H451.175ZM465.66 95V61.4H478.236C481.084 61.4 483.532 61.864 485.58 62.792C487.628 63.688 489.196 65 490.284 66.728C491.404 68.424 491.964 70.488 491.964 72.92C491.964 75.288 491.404 77.336 490.284 79.064C489.196 80.76 487.628 82.072 485.58 83C483.532 83.896 481.084 84.344 478.236 84.344H467.628L469.212 82.712V95H465.66ZM488.604 95L479.964 82.808H483.804L492.492 95H488.604ZM469.212 83L467.628 81.32H478.14C481.5 81.32 484.044 80.584 485.772 79.112C487.532 77.64 488.411 75.576 488.411 72.92C488.411 70.232 487.532 68.152 485.772 66.68C484.044 65.208 481.5 64.472 478.14 64.472H467.628L469.212 62.792V83ZM515.035 95.288C512.507 95.288 510.155 94.872 507.979 94.04C505.835 93.176 503.963 91.976 502.363 90.44C500.795 88.872 499.563 87.064 498.667 85.016C497.803 82.936 497.371 80.664 497.371 78.2C497.371 75.736 497.803 73.48 498.667 71.432C499.563 69.352 500.795 67.544 502.363 66.008C503.963 64.44 505.835 63.24 507.979 62.408C510.123 61.544 512.475 61.112 515.035 61.112C517.563 61.112 519.899 61.544 522.043 62.408C524.187 63.24 526.043 64.424 527.611 65.96C529.211 67.496 530.443 69.304 531.307 71.384C532.203 73.464 532.651 75.736 532.651 78.2C532.651 80.664 532.203 82.936 531.307 85.016C530.443 87.096 529.211 88.904 527.611 90.44C526.043 91.976 524.187 93.176 522.043 94.04C519.899 94.872 517.563 95.288 515.035 95.288ZM515.035 92.12C517.051 92.12 518.907 91.784 520.603 91.112C522.331 90.408 523.819 89.432 525.067 88.184C526.347 86.904 527.339 85.432 528.043 83.768C528.747 82.072 529.099 80.216 529.099 78.2C529.099 76.184 528.747 74.344 528.043 72.68C527.339 70.984 526.347 69.512 525.067 68.264C523.819 66.984 522.331 66.008 520.603 65.336C518.907 64.632 517.051 64.28 515.035 64.28C513.019 64.28 511.147 64.632 509.419 65.336C507.691 66.008 506.187 66.984 504.907 68.264C503.659 69.512 502.667 70.984 501.931 72.68C501.227 74.344 500.875 76.184 500.875 78.2C500.875 80.184 501.227 82.024 501.931 83.72C502.667 85.416 503.659 86.904 504.907 88.184C506.187 89.432 507.691 90.408 509.419 91.112C511.147 91.784 513.019 92.12 515.035 92.12Z" fill="#FDE4A4"/>
<mask id="mask0_0_1" style="mask-type:alpha" maskUnits="userSpaceOnUse" x="18" y="18" width="60" height="60">
<rect x="18" y="18" width="60" height="60" fill="#D9D9D9"/>
</mask>
<g mask="url(#mask0_0_1)">
<path d="M45.5626 70.5V65.125C43.3543 64.625 41.448 63.6667 39.8438 62.25C38.2397 60.8333 37.0626 58.8333 36.3126 56.25L40.9376 54.375C41.5626 56.375 42.4897 57.8958 43.7188 58.9375C44.948 59.9792 46.5626 60.5 48.5626 60.5C50.2709 60.5 51.7188 60.1146 52.9063 59.3438C54.0938 58.5729 54.6876 57.375 54.6876 55.75C54.6876 54.2917 54.2293 53.1354 53.3126 52.2813C52.3959 51.4271 50.2709 50.4583 46.9376 49.375C43.3543 48.25 40.8959 46.9062 39.5626 45.3438C38.2293 43.7812 37.5626 41.875 37.5626 39.625C37.5626 36.9167 38.4376 34.8125 40.1876 33.3125C41.9376 31.8125 43.7293 30.9583 45.5626 30.75V25.5H50.5626V30.75C52.6459 31.0833 54.3647 31.8438 55.7188 33.0313C57.073 34.2188 58.0626 35.6667 58.6876 37.375L54.0626 39.375C53.5626 38.0417 52.8543 37.0417 51.9376 36.375C51.0209 35.7083 49.7709 35.375 48.1876 35.375C46.3543 35.375 44.9584 35.7812 44.0001 36.5938C43.0418 37.4063 42.5626 38.4167 42.5626 39.625C42.5626 41 43.1876 42.0833 44.4376 42.875C45.6876 43.6667 47.8543 44.5 50.9376 45.375C53.8126 46.2083 55.9897 47.5313 57.4688 49.3438C58.948 51.1563 59.6876 53.25 59.6876 55.625C59.6876 58.5833 58.8126 60.8333 57.0626 62.375C55.3126 63.9167 53.1459 64.875 50.5626 65.25V70.5H45.5626Z" fill="#F8D782"/>
</g>
<mask id="mask1_0_1" style="mask-type:alpha" maskUnits="userSpaceOnUse" x="0" y="0" width="96" height="96">
<path d="M0 0H96V96H0V0Z" fill="#D9D9D9"/>
</mask>
<g mask="url(#mask1_0_1)">
<path d="M48 92C40.5333 92 33.6667 90.2833 27.4 86.85C21.1333 83.4166 16 78.8666 12 73.2V80H4V60H24V68H18.2C21.4 72.8 25.6 76.6666 30.8 79.6C36 82.5333 41.7333 84 48 84C53 84 57.6833 83.05 62.05 81.15C66.4167 79.25 70.2167 76.6833 73.45 73.45C76.6833 70.2166 79.25 66.4166 81.15 62.05C83.05 57.6833 84 53 84 48H92C92 54.0666 90.85 59.7666 88.55 65.1C86.25 70.4333 83.1 75.1 79.1 79.1C75.1 83.1 70.4333 86.25 65.1 88.55C59.7667 90.85 54.0667 92 48 92ZM29.4 17.3L26 9.89997C29.4 7.96664 32.85 6.49997 36.35 5.49997C39.85 4.49997 43.7333 3.99997 48 3.99997C55.4667 3.99997 62.3333 5.71664 68.6 9.14997C74.8667 12.5833 80 17.1333 84 22.8V16H92V36H72V28H77.8C74.6 23.2 70.4 19.3333 65.2 16.4C60 13.4666 54.2667 12 48 12C44.4667 12 41.1833 12.4833 38.15 13.45C35.1167 14.4166 32.2 15.7 29.4 17.3ZM16 48L11 37L0 32L11 27L16 16L21 27L32 32L21 37L16 48Z" fill="#F8D782"/>
</g>
</svg>
